<svg xmlns="http://www.w3.org/2000/svg" width="260" height="40.845" viewBox="0 0 260 40.845">
  <g id="Group_10" data-name="Group 10" transform="translate(-140.882 -265.922)">
    <rect id="Rectangle_1" data-name="Rectangle 1" width="4.25" height="23.893" transform="translate(207.282 274.76)" fill="#fff"/>
    <path id="Path_1" data-name="Path 1" d="M301.052,282.2a6.468,6.468,0,0,0-5.832,3.345h-.272l-.542-2.8h-3.345v23.893h4.249v-14.67a7.088,7.088,0,0,1,1.22-4.318,3.615,3.615,0,0,1,2.984-1.65,3.11,3.11,0,0,1,2.464.949,4.94,4.94,0,0,1,.836,3.255v16.434h4.25V289.526Q307.065,282.2,301.052,282.2Z" transform="translate(-73.653 -7.984)" fill="#fff"/>
    <path id="Path_2" data-name="Path 2" d="M381.343,282.2q-4.52,0-6.758,3.028t-2.238,9.4q0,6.465,2.26,9.448t6.826,2.984a7.55,7.55,0,0,0,5.764-2.328,8.96,8.96,0,0,0,2.192-6.4h-4.2a6.047,6.047,0,0,1-1.018,3.707,3.2,3.2,0,0,1-2.689,1.356,3.822,3.822,0,0,1-3.549-1.853,11.786,11.786,0,0,1-1.153-5.741H389.39v-2.034q0-6.012-1.989-8.793A6.953,6.953,0,0,0,381.343,282.2Zm-4.52,10.081a10.073,10.073,0,0,1,1.289-4.837,3.626,3.626,0,0,1,3.232-1.582,2.917,2.917,0,0,1,2.713,1.65,10.121,10.121,0,0,1,.9,4.769Z" transform="translate(-113.518 -7.984)" fill="#fff"/>
    <path id="Path_3" data-name="Path 3" d="M419.244,288.009a3.1,3.1,0,0,1,2.939-1.966,2.624,2.624,0,0,1,2.532,1.356,9.733,9.733,0,0,1,.723,4.34h4.386q0-9.4-7.64-9.4a7.041,7.041,0,0,0-6.284,3.028q-2.035,3.03-2.035,9.4,0,6.42,2.012,9.426t6.4,3.006a6.592,6.592,0,0,0,5.651-2.554,11.226,11.226,0,0,0,1.9-6.849h-4.2a9.049,9.049,0,0,1-.791,4.272,2.7,2.7,0,0,1-2.555,1.425,3.164,3.164,0,0,1-3.029-1.944,14.106,14.106,0,0,1-.949-5.922v-1.718A14.13,14.13,0,0,1,419.244,288.009Z" transform="translate(-133.879 -8.05)" fill="#fff"/>
    <path id="Path_4" data-name="Path 4" d="M462.07,282.336a7.628,7.628,0,0,0-6.6,3.051q-2.215,3.051-2.215,9.38t2.215,9.38a8.686,8.686,0,0,0,13.223,0q2.193-3.051,2.193-9.38t-2.193-9.38A7.615,7.615,0,0,0,462.07,282.336Zm4.385,13.291q0,7.866-4.385,7.866a3.488,3.488,0,0,1-3.278-1.967,12.8,12.8,0,0,1-1.062-5.9v-1.718a12.8,12.8,0,0,1,1.062-5.9,3.488,3.488,0,0,1,3.278-1.966q4.384,0,4.385,7.866Z" transform="translate(-153.197 -8.05)" fill="#fff"/>
    <rect id="Rectangle_2" data-name="Rectangle 2" width="4.25" height="32.731" transform="translate(322.868 265.922)" fill="#fff"/>
    <rect id="Rectangle_3" data-name="Rectangle 3" width="4.25" height="32.731" transform="translate(196.164 265.922)" fill="#fff"/>
    <rect id="Rectangle_4" data-name="Rectangle 4" width="4.249" height="32.731" transform="translate(332.515 265.922)" fill="#fff"/>
    <path id="Path_5" data-name="Path 5" d="M544.133,282.2q-4.521,0-6.759,3.028t-2.237,9.4q0,6.465,2.259,9.448t6.827,2.984a7.552,7.552,0,0,0,5.765-2.328,8.96,8.96,0,0,0,2.192-6.4h-4.2a6.047,6.047,0,0,1-1.017,3.707,3.2,3.2,0,0,1-2.691,1.356,3.822,3.822,0,0,1-3.549-1.853,11.787,11.787,0,0,1-1.152-5.741H552.18v-2.034q0-6.012-1.989-8.793A6.953,6.953,0,0,0,544.133,282.2Zm-4.521,10.081a10.08,10.08,0,0,1,1.288-4.837,3.627,3.627,0,0,1,3.233-1.582,2.917,2.917,0,0,1,2.712,1.65,10.121,10.121,0,0,1,.9,4.769Z" transform="translate(-193.355 -7.984)" fill="#fff"/>
    <path id="Path_6" data-name="Path 6" d="M344.513,300.41H337.28a1.915,1.915,0,0,1-1.379-.542,1.748,1.748,0,0,1-.565-1.311,1.873,1.873,0,0,1,.565-1.379,1.932,1.932,0,0,1,1.424-.565h2.442a7.786,7.786,0,0,0,5.831-2.17,7.974,7.974,0,0,0,2.125-5.832,7.806,7.806,0,0,0-2.034-5.56l-.052-.036a4.162,4.162,0,0,0,3.985-4.152h-4.171a4.156,4.156,0,0,0-3.548,2,8.508,8.508,0,0,0-2.273-.3,7.433,7.433,0,0,0-8.091,8.047,8.48,8.48,0,0,0,.724,3.572,7.192,7.192,0,0,0,2.078,2.667,5.71,5.71,0,0,0-2.463,1.6,3.7,3.7,0,0,0-.927,2.51,4.164,4.164,0,0,0,.52,2.034,4.209,4.209,0,0,0,1.424,1.537,4.773,4.773,0,0,0-2.239,1.922,5.623,5.623,0,0,0-.836,3.051,5.355,5.355,0,0,0,5.7,5.606h7.324a7.088,7.088,0,0,0,5.244-1.944,6.737,6.737,0,0,0,1.944-4.973,5.835,5.835,0,0,0-1.537-4.136A5.192,5.192,0,0,0,344.513,300.41Zm-7.753-15.235a3.4,3.4,0,0,1,2.825-1.22,3.487,3.487,0,0,1,2.871,1.2,5.38,5.38,0,0,1,.971,3.458,5.32,5.32,0,0,1-.995,3.413,3.432,3.432,0,0,1-2.847,1.243,3.394,3.394,0,0,1-2.825-1.221,6.56,6.56,0,0,1,0-6.872Zm4.144,24.4h-7a5.3,5.3,0,0,1,5.353-5.472h7A5.448,5.448,0,0,1,340.905,309.577Z" transform="translate(-92.662 -6.346)" fill="#fff"/>
    <rect id="Rectangle_5" data-name="Rectangle 5" width="4.25" height="4.25" transform="translate(207.282 265.922)" fill="#fff"/>
    <g id="Group_6" data-name="Group 6" transform="translate(140.882 265.922)">
      <g id="Group_5" data-name="Group 5">
        <g id="Group_1" data-name="Group 1" transform="translate(17.397)">
          <path id="Path_7" data-name="Path 7" d="M175.022,281.257a15.335,15.335,0,0,1,15.335-15.335v15.335Z" transform="translate(-175.022 -265.922)" fill="#fff"/>
        </g>
        <g id="Group_2" data-name="Group 2" transform="translate(34.793)">
          <path id="Path_8" data-name="Path 8" d="M224.5,265.922a15.335,15.335,0,0,1-15.335,15.335V265.922Z" transform="translate(-209.161 -265.922)" fill="#fff"/>
        </g>
        <g id="Group_3" data-name="Group 3" transform="translate(0 17.397)">
          <path id="Path_9" data-name="Path 9" d="M140.882,315.4a15.335,15.335,0,0,1,15.335-15.335V315.4Z" transform="translate(-140.882 -300.062)" fill="#fff"/>
        </g>
        <g id="Group_4" data-name="Group 4" transform="translate(17.397 17.397)">
          <path id="Path_10" data-name="Path 10" d="M190.357,300.062A15.335,15.335,0,0,1,175.022,315.4V300.062Z" transform="translate(-175.022 -300.062)" fill="#fff"/>
        </g>
      </g>
    </g>
    <path id="Path_11" data-name="Path 11" d="M626.668,282.2q-4.521,0-6.758,3.028t-2.238,9.4q0,6.465,2.26,9.448t6.826,2.984a7.549,7.549,0,0,0,5.764-2.328,8.957,8.957,0,0,0,2.192-6.4h-4.2a6.05,6.05,0,0,1-1.017,3.707,3.2,3.2,0,0,1-2.69,1.356,3.822,3.822,0,0,1-3.549-1.853,11.786,11.786,0,0,1-1.153-5.741h12.612v-2.034q0-6.012-1.989-8.793A6.953,6.953,0,0,0,626.668,282.2Zm-4.52,10.081a10.072,10.072,0,0,1,1.289-4.837,3.626,3.626,0,0,1,3.232-1.582,2.917,2.917,0,0,1,2.713,1.65,10.121,10.121,0,0,1,.9,4.769Z" transform="translate(-233.833 -7.984)" fill="#fff"/>
    <path id="Path_12" data-name="Path 12" d="M589.838,300.41h-7.233a1.915,1.915,0,0,1-1.379-.542,1.748,1.748,0,0,1-.565-1.311,1.873,1.873,0,0,1,.565-1.379,1.932,1.932,0,0,1,1.424-.565h2.442a7.786,7.786,0,0,0,5.831-2.17,7.974,7.974,0,0,0,2.125-5.832,7.8,7.8,0,0,0-2.034-5.56l-.052-.036a4.162,4.162,0,0,0,3.985-4.152h-4.171a4.157,4.157,0,0,0-3.548,2,8.507,8.507,0,0,0-2.272-.3,7.433,7.433,0,0,0-8.092,8.047,8.479,8.479,0,0,0,.724,3.572,7.193,7.193,0,0,0,2.079,2.667,5.709,5.709,0,0,0-2.463,1.6,3.7,3.7,0,0,0-.927,2.51A4.164,4.164,0,0,0,576.8,301a4.214,4.214,0,0,0,1.424,1.537,4.77,4.77,0,0,0-2.238,1.922,5.62,5.62,0,0,0-.836,3.051,5.355,5.355,0,0,0,5.7,5.606h7.324a7.087,7.087,0,0,0,5.244-1.944,6.738,6.738,0,0,0,1.945-4.973,5.836,5.836,0,0,0-1.537-4.136A5.191,5.191,0,0,0,589.838,300.41Zm-7.753-15.235a3.4,3.4,0,0,1,2.825-1.22,3.487,3.487,0,0,1,2.871,1.2,5.379,5.379,0,0,1,.971,3.458,5.32,5.32,0,0,1-.995,3.413,3.432,3.432,0,0,1-2.847,1.243,3.4,3.4,0,0,1-2.825-1.221,6.559,6.559,0,0,1,0-6.872Zm4.144,24.4h-7a5.3,5.3,0,0,1,5.353-5.472h7A5.448,5.448,0,0,1,586.23,309.577Z" transform="translate(-212.977 -6.346)" fill="#fff"/>
  </g>
</svg>
