<svg xmlns="http://www.w3.org/2000/svg" width="1228.029" height="254.27" viewBox="0 0 1228.029 254.27">
  <g id="Group_473" data-name="Group 473" transform="translate(-692.011 -1070.326)">
    <g id="Group_48" data-name="Group 48" transform="translate(692.011 1091.326)">
      <path id="Path_78" data-name="Path 78" d="M0,7.988A21.164,21.164,0,0,1,21.163-13.175V7.988Z" transform="translate(0 13.175)" fill="#ffa52c"/>
    </g>
    <g id="Group_49" data-name="Group 49" transform="translate(889.692 1091.489) rotate(180)">
      <path id="Path_79" data-name="Path 79" d="M0,7.988A21.163,21.163,0,0,1,21.163-13.175V7.988Z" transform="translate(0 13.175)" fill="#ff6927"/>
    </g>
    <g id="Group_50" data-name="Group 50" transform="translate(1544.179 1085.326)">
      <path id="Path_80" data-name="Path 80" d="M0,7.988A21.163,21.163,0,0,1,21.163-13.175V7.988Z" transform="translate(0 13.175)" fill="#fe2e72"/>
    </g>
    <g id="Group_51" data-name="Group 51" transform="translate(901.43 1183.681)">
      <path id="Path_81" data-name="Path 81" d="M7.987,0A21.162,21.162,0,0,1-13.174,21.163V0Z" transform="translate(13.174)" fill="#742c78"/>
    </g>
    <g id="Group_52" data-name="Group 52" transform="translate(1180.879 1303.433)">
      <path id="Path_82" data-name="Path 82" d="M0,7.988A21.162,21.162,0,0,1,21.161-13.175V7.988Z" transform="translate(0 13.175)" fill="#2897a8"/>
    </g>
    <g id="Group_250" data-name="Group 250" transform="translate(1898.879 1225.433)">
      <path id="Path_82-2" data-name="Path 82" d="M0,7.988A21.162,21.162,0,0,1,21.161-13.175V7.988Z" transform="translate(0 13.175)" fill="#2897a8"/>
    </g>
    <g id="Group_53" data-name="Group 53" transform="translate(1318.353 1236.437)">
      <path id="Path_83" data-name="Path 83" d="M0,7.988A21.164,21.164,0,0,1,21.163-13.175V7.988Z" transform="translate(0 13.175)" fill="#fe2e72"/>
    </g>
    <g id="Group_54" data-name="Group 54" transform="translate(1521.692 1303.596) rotate(180)">
      <path id="Path_84" data-name="Path 84" d="M0,7.988A21.163,21.163,0,0,1,21.163-13.175V7.988Z" transform="translate(0 13.175)" fill="#742c78"/>
    </g>
    <g id="Group_55" data-name="Group 55" transform="translate(1685.125 1246.596) rotate(180)">
      <path id="Path_85" data-name="Path 85" d="M7.988,0A21.163,21.163,0,0,1-13.175,21.163V0Z" transform="translate(13.175)" fill="#ffa52c"/>
    </g>
    <g id="Group_58" data-name="Group 58" transform="translate(1819.4 1175.915) rotate(180)">
      <path id="Path_88" data-name="Path 88" d="M0,7.988A21.163,21.163,0,0,1,21.163-13.175V7.988Z" transform="translate(0 13.175)" fill="#ff6927"/>
    </g>
  </g>
</svg>
